<svg xmlns="http://www.w3.org/2000/svg" width="220" height="88" fill="none" viewBox="0 0 220 88"><path fill="#cb9a00" fill-rule="evenodd" stroke="#cb9a00" stroke-width=".5" d="M.3 86.077v1.293h218.526v-1.293z" clip-rule="evenodd"/><path fill="#6e132c" fill-rule="evenodd" d="M.018 32.393h219V82.49h-219z" clip-rule="evenodd"/><path fill="#cb9a00" fill-rule="evenodd" stroke="#cb9a00" stroke-width=".28" d="M53.126 68.997c0 .212-.04.343-.131.394-.08.05-.303.07-.656.05q-3.2-.135-4.96 0c-.363.02-.555-.131-.555-.454 0-.182.181-.303.555-.384.727-.172 1.162-.313 1.313-.414.182-.142.263-.465.243-.96l-.415-10.777c0-.222-.06-.323-.171-.323-.081 0-.162.07-.232.222a779 779 0 0 0-3.081 6.444c-1.192 2.535-2.03 4.465-2.515 5.778-.223.616-.344.929-.344.95a.54.54 0 0 1-.353.292 1 1 0 0 1-.202.03c-.162 0-.313-.252-.434-.747-.516-1.91-2.283-6.131-5.313-12.686-.091-.192-.192-.293-.293-.293-.132 0-.192.131-.202.383a1161 1161 0 0 0-.414 9.99c-.05 1.111.495 1.767 1.626 1.98.454.08.677.252.677.505 0 .212-.04.353-.132.404-.08.05-.293.07-.636.05-1.879-.07-3.333-.07-4.374 0-.363.02-.555-.131-.555-.454 0-.182.182-.303.555-.384.657-.152 1.081-.364 1.283-.677.162-.232.253-.656.263-1.272l.424-11.172c.02-.485-.08-.858-.283-1.12-.182-.223-.545-.476-1.09-.738-.395-.182-.576-.384-.556-.586.02-.222.192-.313.525-.263 1.252.182 2.353.212 3.293.101q.542-.06.737.03c.131.061.242.203.343.445l5.121 12.11c.071.172.122.253.172.253s.121-.111.222-.343c.324-.728 2.152-4.637 5.475-11.727.202-.434.465-.647.778-.647.757 0 1.818-.11 3.171-.343.313-.05.505-.06.576-.05q.212.06.212.454c0 .202-.222.374-.646.515-1.02.323-1.526.727-1.505 1.192l.454 12.303c.02.494.131.838.354 1.04.181.182.505.313.99.404.454.09.686.263.686.495Zm26.797 6.222c-2.636.697-6.97-1.808-9.171-4.656-.131-.172-.303-.384-.414-.536-1.111-1.576-1.606-2.323-2.525-4.02-.516-.95-.859-1.93-1.101-2.505-.586.03-1.606.05-3.06.05-1.213 0-2.233-.03-3.082-.1-.282.727-.686 1.737-1.202 3.03-.11.293-.171.555-.171.798 0 .474.252.818.747 1.03.768.333 1.142.596 1.131.768-.02.282-.272.404-.777.343q-2.304-.258-4.273.152-.515.118-.575-.384c-.03-.222.232-.455.797-.707.606-.263 1.111-.859 1.536-1.808 1.585-3.566 2.616-5.899 3.07-7.02q1.682-4.03 2.394-6.576.09-.394.97-.727c.141-.05.313.192.535.738 1.293 3.212 2.879 7.595 4.374 10.928.09.192.181.384.262.576 2.01 4.838 6.404 10.484 10.525 10.596.03 0 .02.04.02.04zM66.308 62.512c-.536-1.262-1.384-3.222-2.526-5.868-.07-.142-.141-.212-.222-.212q-.12 0-.212.212l-2.333 5.818c.868.07 1.848.1 2.94.1.666 0 1.454-.02 2.353-.05Zm27.423-9.464c0 .202-.223.374-.657.505-.98.283-1.465.869-1.465 1.758v9.09c0 1.92.02 3.455.071 4.626q.03.667-.303.758c-.364.09-.677-.101-.93-.586-.413-.798-2.01-2.768-4.807-5.919a245 245 0 0 0-6.788-7.343c-.07-.08-.141-.091-.222-.06-.08.04-.121.14-.121.292v10.353c0 1.111.545 1.768 1.626 1.98.455.09.677.252.677.485 0 .323-.253.464-.758.444-1.939-.08-3.454-.08-4.535 0-.353.03-.525-.121-.525-.444 0-.182.172-.303.525-.384.626-.151 1.05-.354 1.263-.616.212-.263.313-.707.313-1.323V55.492c0-.484-.101-.858-.293-1.12-.192-.233-.556-.475-1.09-.738-.395-.192-.587-.394-.577-.596.02-.232.212-.323.546-.273 1.06.152 1.97.182 2.747.101.404-.04.758.121 1.091.475l10.262 11.282c.142.162.232.243.283.243.07 0 .101-.111.101-.344v-9.14c0-1.071-.545-1.708-1.626-1.9-.384-.06-.576-.181-.576-.353 0-.354.172-.505.525-.465 1.334.152 2.839.132 4.485-.05.293-.03.475-.04.555-.01.142.04.213.181.213.414zm17.534 12.262c-.101 1.121-.283 2.03-.525 2.717-.162.445-.788.839-1.889 1.192-1.192.374-2.566.566-4.111.566q-3.846 0-6.404-2.364c-1.727-1.596-2.596-3.656-2.596-6.151s.9-4.677 2.687-6.363c1.727-1.637 3.808-2.445 6.242-2.445 1.728 0 3.182.212 4.364.647 1.04.384 1.586.737 1.626 1.06.091.647.131 1.677.131 3.121 0 .233-.202.374-.616.415-.313.03-.515-.071-.586-.303-.434-1.445-1.01-2.435-1.737-2.99s-1.808-.839-3.252-.839c-1.808 0-3.293.617-4.434 1.859-1.243 1.343-1.869 3.192-1.869 5.535s.656 4.202 1.959 5.636c1.273 1.404 2.899 2.111 4.889 2.111 1.293 0 2.303-.283 3.051-.858.707-.546 1.292-1.445 1.737-2.677q.197-.546.879-.394.484.121.454.545zm21.07 3.768c0 .222-.02.353-.081.404-.051.05-.202.06-.444.04a33.5 33.5 0 0 0-4.828-.1c-.314.02-.526 0-.607-.061-.09-.061-.131-.182-.131-.384 0-.263.222-.435.657-.495.687-.091 1.03-.475 1.03-1.142v-4.959q0-.546-.121-.727-.121-.182-.576-.182h-8.666c-.364 0-.586.05-.667.141-.091.091-.131.334-.131.718v5.01c0 .484.505.858 1.535 1.14.445.122.677.294.677.496s-.041.343-.111.383c-.071.051-.283.071-.616.051a35 35 0 0 0-4.849.101c-.242.03-.394.01-.444-.04-.051-.05-.081-.182-.081-.404s.172-.354.525-.384c.798-.091 1.202-.536 1.202-1.354V55.21c0-.788-.454-1.273-1.363-1.475-.323-.08-.515-.131-.586-.172q-.091-.06-.091-.273c0-.11 0-.191.02-.232.051-.161.293-.232.727-.202q3.092.181 5 0c.233-.02.384 0 .445.05.07.051.101.183.101.385 0 .161-.182.282-.556.363-.656.142-1.04.263-1.172.344-.252.171-.383.505-.383 1.02v4.272c0 .586.272.89.828.89h8.535c.333 0 .535-.041.626-.112.111-.111.172-.384.172-.828v-4.343c0-.455-.111-.758-.344-.91q-.196-.135-1.03-.303c-.454-.09-.687-.232-.687-.444q0-.349.121-.424c.081-.06.293-.07.637-.04.899.09 1.838.1 2.788.05.676-.03 1.363-.06 2.04-.101q.346 0 .434.06c.061.04.091.172.091.405 0 .212-.172.343-.525.383-.899.101-1.354.536-1.354 1.313V67.32c0 .414.142.717.435.91.222.15.656.302 1.272.444.354.08.526.202.526.383zm15.12-2.818c-.232 1-.384 2.01-.464 3.03 0 .161-.263.222-.748.202a104 104 0 0 0-4.868-.101c-2.172 0-4.04.04-5.606.131-.354.02-.525-.131-.525-.444 0-.222.171-.354.525-.384.495-.06.808-.152.949-.293.172-.172.263-.525.263-1.06V55.704q0-1.167-.212-1.485c-.141-.202-.525-.414-1.152-.616-.333-.111-.454-.313-.363-.617.04-.161.111-.242.192-.262.081-.03.303 0 .656.05.526.091 1.889.132 4.101.132s4.101-.05 5.687-.152c.535-.03.798 0 .798.111 0 .04 0 .091-.021.121-.171.829-.252 1.768-.222 2.829 0 .262-.111.394-.353.394-.233 0-.384-.111-.475-.344-.232-.586-.434-.98-.606-1.192-.263-.323-.636-.515-1.131-.606-.394-.07-1.778-.11-4.162-.11-.262 0-.444.05-.515.14-.04.051-.06.182-.06.384v5.273c0 .212.121.313.353.313a89 89 0 0 0 3.242-.162.67.67 0 0 0 .536-.363c.091-.172.182-.515.283-1.04q.105-.545.575-.395c.283.051.394.182.354.384-.233 1.142-.303 2.627-.222 4.455 0 .202-.122.323-.404.363-.243.03-.384-.1-.425-.414-.081-.636-.182-1.06-.313-1.262-.121-.202-.363-.324-.717-.364-.677-.08-1.687-.121-3.04-.121-.142 0-.222.06-.222.172v5.514c0 .788.444 1.263 1.323 1.445.222.04.99.06 2.293.06 2.04 0 3.302-.737 3.807-2.192.122-.343.324-.454.596-.343.263.07.364.222.303.465zm20.424-5.06s-.01.07-.031.11c-.343.748-1.141 1.526-2.111 1.485h-.151c-.142 0-.202.152-.202.475v3.97c0 .494-.626 1.03-1.879 1.595-1.414.637-3 .95-4.757.95q-3.834 0-6.394-2.364c-1.727-1.596-2.596-3.656-2.596-6.151s.899-4.677 2.677-6.363c1.727-1.637 3.808-2.445 6.232-2.445q2.803 0 4.757.697c.96.334 1.465.677 1.505 1.01q.121.958.121 2.839c0 .282-.171.424-.505.444-.393.02-.626-.101-.727-.343-.444-1.253-1.081-2.162-1.889-2.707-.808-.556-1.919-.829-3.343-.829-1.959 0-3.485.617-4.586 1.859-1.131 1.283-1.696 3.131-1.696 5.535s.656 4.182 1.959 5.596c1.263 1.383 2.889 2.07 4.879 2.07 1.02 0 1.969-.192 2.848-.565.838-.364 1.263-.728 1.263-1.101V64.33c0-.626-.122-1.08-.364-1.353-1.061-1.505-2.677-.09-2.828-.02-.132.1-.121-.101-.071-.212.586-1.475 2.808-1.778 4.222-1.283 1.313.333 1.727.636 2.697.232.131-.05.434-.313.657-.505.101-.09.323-.182.323.03zm19.655-.112c0 2.434-.868 4.495-2.616 6.192-1.717 1.666-3.777 2.505-6.181 2.505-2.536 0-4.636-.788-6.313-2.354-1.717-1.616-2.576-3.707-2.576-6.262s.869-4.555 2.606-6.242c1.717-1.647 3.808-2.475 6.273-2.475s4.605.808 6.272 2.414c1.687 1.636 2.535 3.707 2.535 6.222Zm-2.484.434c0-2.444-.647-4.393-1.95-5.807q-1.876-2.048-4.949-2.05-2.546 0-4.182 1.939c-1.091 1.292-1.636 2.98-1.636 5.05 0 2.485.626 4.444 1.899 5.868 1.232 1.384 2.909 2.07 5.02 2.07 1.707 0 3.101-.646 4.171-1.948 1.081-1.293 1.616-3.01 1.616-5.122z" clip-rule="evenodd"/><path fill="#611329" fill-rule="evenodd" stroke="#cb9a00" stroke-width="2" d="M96.922 1h25.353c.424 3.485 2.525 5.565 6.262 6.262v28.06c-3.828.525-5.838 2.676-6.262 6.262H96.922c-.535-3.596-2.585-5.727-6.262-6.262V7.262C94.023 6.91 96.266 5.02 96.922 1Z" clip-rule="evenodd"/><path fill="#cb9a00" fill-rule="evenodd" d="M122.386 23.302c0 .283-.061.444-.172.515-.111.07-.404.091-.889.07-2.899-.12-3.121-.1-4.717.01-.495.031-.747-.17-.747-.605 0-.232.252-.394.747-.495.99-.212 1.364-.374 1.566-.525.252-.182.353-.606.333-1.263l-.242-6.01c-.01-.293-.081-.434-.222-.434-.112 0-.213.101-.314.293a882 882 0 0 0-4.181 8.484c-1.616 3.344-2.758 5.879-3.414 7.616-.303.808-.465 1.222-.475 1.253a.77.77 0 0 1-.475.394c-.111.03-.202.04-.282.04-.223 0-.425-.333-.596-.98-.697-2.505-3.101-8.08-7.212-16.706-.121-.253-.253-.384-.394-.384-.172 0-.263.172-.283.515a1713 1713 0 0 0-.566 13.151c-.07 1.465.667 2.333 2.212 2.616.617.111.92.334.92.657 0 .283-.061.464-.172.525-.111.07-.404.09-.869.07q-3.833-.15-5.939 0c-.495.02-.747-.171-.747-.605 0-.233.252-.404.747-.495.889-.192 1.475-.485 1.748-.89.222-.302.343-.868.363-1.676l.576-14.716c.02-.647-.111-1.132-.384-1.485q-.363-.44-1.485-.97c-.535-.242-.788-.495-.747-.767.02-.293.263-.404.717-.344 1.707.243 3.192.283 4.464.132.485-.051.829-.04 1 .03s.334.262.465.575l6.959 15.94q.136.332.243.332c.06 0 .161-.151.293-.444.444-.95 2.919-6.1 7.434-15.433.282-.566.626-.849 1.05-.849 1.03 0 .818-.04 2.697-.152.586-.03.596.101.646.283.031.101-.222.374-.808.556-1.394.434-1.646 1.131-1.626 1.747l.293 8.01c.02.646-.03 1.06.263 1.333.252.233.515.414 1.161.546.616.12 1.051.222 1.051.535z" clip-rule="evenodd"/><path fill="#cb9a00" fill-rule="evenodd" d="M115.528 25.07c.828 0 1.504.828 1.504 1.858s-.676 1.859-1.504 1.859c-.829 0-1.505-.829-1.505-1.859s.676-1.858 1.505-1.858m3.676-.122c.828 0 1.505.829 1.505 1.859s-.677 1.858-1.505 1.858-1.505-.828-1.505-1.858.677-1.859 1.505-1.859m-1.727 4.02c.828 0 1.505.829 1.505 1.859s-.677 1.858-1.505 1.858-1.505-.828-1.505-1.858.677-1.859 1.505-1.859m5.373-3.928c.829 0 1.505.828 1.505 1.858s-.676 1.858-1.505 1.858-1.505-.828-1.505-1.858.677-1.859 1.505-1.859m-1.707 4.021c.829 0 1.505.828 1.505 1.858s-.676 1.858-1.505 1.858-1.505-.828-1.505-1.858.677-1.859 1.505-1.859m-1.727 3.929c.828 0 1.505.829 1.505 1.859s-.677 1.858-1.505 1.858-1.505-.828-1.505-1.858.677-1.859 1.505-1.859" clip-rule="evenodd"/><path fill="#cb9a00" fill-rule="evenodd" stroke="#cb9a00" stroke-width=".5" d="M137.466 27.857v1.293h81.249v-1.293zM.25 27.807V29.1h81.774v-1.293z" clip-rule="evenodd"/></svg>